<svg xmlns="http://www.w3.org/2000/svg" viewBox="0 0 74.96 74.95"><defs><style>.cls-1{fill:#0f0f10;}</style></defs><g id="Capa_2" data-name="Capa 2"><g id="Capa_1-2" data-name="Capa 1"><path class="cls-1" d="M37.34,0A37,37,0,0,0,0,37.29,37.48,37.48,0,0,0,37.16,75,37.92,37.92,0,0,0,75,37.21,37.49,37.49,0,0,0,37.34,0ZM14.53,23a5.14,5.14,0,0,1,5.12-4c6,0,12,0,17.93,0V19c5.32,0,10.63,0,16,0,1.87,0,3.68.11,5.09,1.52,1.77,1.76,2.7,3.3-.34,5-6,3.26-11.75,6.81-17.64,10.2-2.38,1.37-4.66,1.11-7-.3C28.34,32.23,23,29.31,17.69,26.16,16.43,25.4,13.91,25.27,14.53,23ZM60.45,50.67c-.13,3.6-3,5.11-6.28,5.15q-16.68.2-33.38,0c-4,0-6.63-2-6.64-6.42,0-7.13,0-14.26,0-22.2,6.44,3.64,12.17,6.6,17.61,10,4.06,2.57,7.57,2.31,11.52-.13,5.43-3.37,11.07-6.39,17.26-9.92C60.53,35.53,60.72,43.11,60.45,50.67Z"/></g></g></svg>