<svg xmlns="http://www.w3.org/2000/svg" viewBox="0 0 74.92 74.92"><defs><style>.cls-1{fill:#010101;}</style></defs><g id="Capa_2" data-name="Capa 2"><g id="Capa_1-2" data-name="Capa 1"><path class="cls-1" d="M37.24,0A37.44,37.44,0,0,0,0,37.55,37,37,0,0,0,37.23,74.92,37.46,37.46,0,0,0,74.92,37.81,37.85,37.85,0,0,0,37.24,0ZM56.05,52.18c-1.73,3-4.36,4.44-8.64,4.45a16.52,16.52,0,0,1-4-1.19c-9.79-5.38-17.94-12.56-23.79-22.17a9.4,9.4,0,0,1-.58-9.53c1.43-2.82,3.29-5.8,7.19-4.62,2.76.84,6,7.25,4.69,9.48-3.12,5.22.52,8.12,3.53,11,3.22,3.07,6.15,7,11.93,3.92,3.92-2.09,5.95,2.51,8.71,4.26A3.05,3.05,0,0,1,56.05,52.18Z"/></g></g></svg>